<svg width="32" height="32" viewBox="0 0 32 32" fill="none" xmlns="http://www.w3.org/2000/svg">
<g clip-path="url(#clip0_135_10)">
<path d="M32 16C32 7.16344 24.8366 0 16 0C7.16344 0 0 7.16344 0 16C0 24.8366 7.16344 32 16 32C24.8366 32 32 24.8366 32 16Z" fill="#EDEDE9"/>
<rect width="32" height="32" rx="16" fill="#D9D9D9"/>
<path fill-rule="evenodd" clip-rule="evenodd" d="M12.0625 8H8V16.125H12.0625C9.81885 16.125 8 17.9439 8 20.1875V24.25H16.125V20.1875C16.125 22.4311 17.9439 24.25 20.1875 24.25H24.25V16.125H20.1875C22.4311 16.125 24.25 14.3062 24.25 12.0625V8H16.125V12.0625C16.125 9.8188 14.3062 8 12.0625 8ZM16.125 16.125H12.0625C14.3062 16.125 16.125 17.9439 16.125 20.1875V16.125ZM16.125 16.125V12.0625C16.125 14.3062 17.9439 16.125 20.1875 16.125H16.125Z" fill="black"/>
<path d="M12.1924 9.34517L13.1118 9.31086L13.0491 7.63203L14.453 7.70974C14.4282 7.85076 14.372 7.95293 14.1037 8.00297L14.151 9.27209L14.4408 9.26127L14.9151 8.5631C14.9151 8.5631 15.5222 9.01078 15.8743 9.32787C15.8484 9.43891 15.7504 9.49261 15.6205 9.49745L14.1615 9.55189L14.1846 10.1715C16.3807 10.83 15.6812 12.4673 14.8579 11.8575C14.7812 11.4101 14.502 10.9001 14.1969 10.5012L14.2897 12.9895C14.2935 13.0894 13.8512 13.3061 13.4515 13.321L13.2616 13.3281L13.1833 11.2295C12.9451 11.5486 12.6761 11.8489 12.366 12.1206L12.2605 11.9745C12.6456 11.2996 12.8145 10.4627 12.9223 9.59813L12.2828 9.62199L12.1924 9.34517ZM10.0398 10.6563L9.93539 10.5402C10.2529 10.1981 10.5466 9.75682 10.77 9.30817C10.4379 8.99033 10.077 8.70359 9.75865 8.48531L9.85522 8.39165C10.339 8.48367 10.7236 8.59941 11.0489 8.73738C11.1869 8.41201 11.3049 8.08738 11.3744 7.80459L12.5737 8.30022C12.5275 8.40202 12.4498 8.46496 12.2088 8.44393C12.0871 8.66862 11.9254 8.89481 11.7438 9.12174C12.6507 9.82841 12.3104 10.6317 11.6493 10.3461C11.5323 10.1603 11.3746 9.95608 11.1969 9.75257C10.8495 10.0958 10.4709 10.4101 10.0398 10.6563ZM6.67944 13.1233L6.55467 12.9979C7.14218 12.1154 7.50827 10.9309 7.70597 9.79276L6.68668 9.83079L6.59629 9.55396L7.98533 9.50214L7.92306 7.8333L9.32693 7.91101C9.31217 8.05166 9.23595 8.15457 8.96763 8.20461L9.01461 9.46373L9.13453 9.45926L9.5511 8.82328C9.5511 8.82328 10.0868 9.2336 10.3981 9.5322C10.3822 9.64287 10.2842 9.69656 10.1443 9.70178L9.02505 9.74354L9.04668 10.3231C9.48085 10.427 9.77699 10.5861 9.95321 10.7496L9.97282 10.7389C10.4166 10.8324 10.7712 10.9493 11.0762 11.078C11.2164 10.8126 11.327 10.5583 11.4084 10.3251L12.6085 10.8407C12.5622 10.9425 12.4741 10.9958 12.2436 10.9844C12.1204 11.1691 11.9868 11.3442 11.8232 11.5204C12.681 12.249 12.3307 13.0526 11.6792 12.7567C11.5815 12.5502 11.4326 12.3156 11.2542 12.0921C10.7987 12.4893 10.2613 12.8396 9.66997 13.0818L9.57556 12.9653C10.0425 12.6076 10.454 12.1019 10.7851 11.5892C10.5774 11.3868 10.3601 11.1948 10.1539 11.0323C10.3517 11.5053 9.89728 11.9325 9.44379 11.5792C9.4115 11.2502 9.2478 10.886 9.05749 10.6129L9.15518 13.2311C9.15853 13.321 8.72667 13.5473 8.32695 13.5622L8.13708 13.5693L8.05915 11.4808C7.6918 12.0949 7.2219 12.6428 6.67944 13.1233ZM15.5925 14.1117L11.7951 14.2534C12.6471 15.3624 14.279 15.6518 16.1011 15.6738L16.1056 15.7937C15.6411 15.9512 15.3662 16.3617 15.2875 16.935C13.4528 16.5732 12.2479 15.9277 11.5753 14.2616L11.4853 14.2649C11.1733 15.5575 10.2387 16.523 6.80382 17.2616L6.7379 17.1039C9.11826 16.2646 9.95633 15.3927 10.2462 14.3112L6.85856 14.4376L6.75819 14.1611L10.3057 14.0288C10.3819 13.6557 10.3969 13.2548 10.4013 12.8344L11.9946 12.895C11.9699 13.036 11.874 13.1497 11.6453 13.1882C11.6258 13.4692 11.5955 13.7305 11.5449 13.9825L14.1231 13.8863L14.7113 13.0238C14.7113 13.0238 15.4321 13.5673 15.8663 13.9414C15.8404 14.0524 15.7324 14.1065 15.5925 14.1117Z" fill="#D9D9D9"/>
<path d="M20.97 22.34H22.09V19.78H20.97V22.34ZM22.23 23.38H22.09V22.63H20.97V23.38C20.97 23.47 20.63 23.66 20.27 23.66H20.14V19.17C20.1 19.24 20.01 19.28 19.89 19.28H18.69V20.45L18.7 20.44C20.8 21.29 19.99 22.72 19.28 22.09C19.23 21.63 18.95 21.07 18.69 20.65V25.55C18.69 25.65 18.3 25.84 17.96 25.84H17.77V21.6C17.39 22.32 16.91 22.97 16.32 23.54L16.19 23.42C16.94 22.28 17.41 20.78 17.66 19.28H16.48L16.4 18.99H17.77V16.58L19.06 16.71C19.04 16.86 18.96 16.96 18.69 17V18.99H18.81L19.3 18.31C19.3 18.31 19.84 18.78 20.16 19.12V19.13L21.01 19.49H21.99L22.42 19.01L23.37 19.73C23.3 19.81 23.15 19.9 22.95 19.94V23.13C22.94 23.19 22.5 23.38 22.23 23.38ZM24.24 17.6L24.79 16.89C24.79 16.89 25.39 17.38 25.76 17.73C25.73 17.84 25.63 17.89 25.49 17.89H24.79V24.61C24.79 25.28 24.62 25.74 23.42 25.84C23.4 25.56 23.33 25.34 23.17 25.19C22.98 25.05 22.71 24.94 22.16 24.86V24.72C22.16 24.72 23.36 24.8 23.61 24.8C23.81 24.8 23.86 24.73 23.86 24.58V17.89H19.85L19.77 17.6H24.24Z" fill="#D9D9D9"/>
</g>
<defs>
<clipPath id="clip0_135_10">
<rect width="32" height="32" fill="white"/>
</clipPath>
</defs>
</svg>
